<svg xmlns="http://www.w3.org/2000/svg" width="256" height="256"><path fill-opacity=".016" d="M0 128.004v128.004l128.25-.254 128.25-.254.254-127.75L257.008 0H0v128.004m.485.496c0 70.4.119 99.053.265 63.672.146-35.38.146-92.98 0-128C.604 29.153.485 58.1.485 128.5" fill="#1976D2" fill-rule="evenodd"/><path fill-opacity=".342" d="M108.5 1.568C54.305 9.844 10.831 52.301 1.615 105.953c-2.252 13.109-2.121 33.366.297 45.838C11.887 203.25 51.008 242.672 103 253.655c11.79 2.49 37.21 2.49 49 0 46.587-9.842 83.146-42.558 97.389-87.155 7.574-23.716 7.58-52.562.015-76.671-7.891-25.149-24.634-48.718-45.904-64.62-26.169-19.565-62.494-28.605-95-23.641m25.111 85.182C115.503 147.259 109 169.266 109 170.041c0 .527 2.686.959 5.968.959h5.968l2.504-8.25c1.377-4.537 7.172-23.887 12.876-43L146.688 85h-6.277c-5.111 0-6.373.325-6.8 1.75M79 110.384L56.5 124.58l-.263 4.46-.262 4.46 23.262 12.716 23.263 12.716.304-5.604c.167-3.082.073-6.205-.208-6.939-.282-.735-7.78-4.974-16.661-9.422-8.882-4.447-15.851-8.384-15.486-8.749.364-.365 7.725-4.725 16.357-9.691L102.5 109.5l.296-6.75c.162-3.713-.063-6.708-.5-6.656-.438.052-10.921 6.483-23.296 14.29m73.203-7.695l.297 6.788 15.797 9.142c8.689 5.028 16.05 9.394 16.357 9.702.308.308-6.707 4.199-15.589 8.646-8.881 4.448-16.379 8.687-16.661 9.422-.281.734-.375 3.864-.208 6.956l.304 5.621 23.264-12.733 23.265-12.733-.265-4.485-.264-4.485-20.5-12.814c-11.275-7.048-21.759-13.489-23.297-14.315l-2.797-1.501.297 6.789" fill="#1976D2" fill-rule="evenodd"/><path fill-opacity=".715" d="M117 1.21C66.7 4.612 22.942 39.156 6.431 88.499c-19.654 58.737 7.475 124.606 62.99 152.933 36.08 18.41 79.513 18.55 115.413.372 34.706-17.573 59.38-49.908 67.765-88.804 2.562-11.885 2.562-38.115 0-50-5.199-24.119-16.422-45.53-32.816-62.606C192.227 11.691 157.542-1.532 117 1.21m16.118 86.04C130.966 93.993 108 171.104 108 171.587c0 .277 2.987.371 6.638.209l6.637-.296 12.843-43c7.063-23.65 12.851-43.338 12.862-43.75.011-.412-2.87-.75-6.402-.75-6.367 0-6.432.028-7.46 3.25m-54.921 23.365l-23.302 14.587.302 4.141.303 4.14 23 12.713c12.65 6.991 23.338 12.733 23.75 12.758.412.025.75-3.076.75-6.892v-6.939l-16.188-8.187c-14.084-7.124-15.965-8.351-14.47-9.444.946-.692 8.23-5.001 16.188-9.578l14.47-8.321v-6.796c0-3.739-.338-6.791-.75-6.784-.412.008-11.236 6.578-24.053 14.602M152 102.69v6.903l14.47 8.321c7.958 4.577 15.242 8.886 16.188 9.578 1.495 1.093-.386 2.32-14.47 9.444L152 145.123v6.939c0 3.816.338 6.917.75 6.892.412-.025 11.1-5.767 23.75-12.758l23-12.713.302-4.137.303-4.137-22.659-14.177c-12.463-7.797-23.286-14.417-24.053-14.711-1.108-.426-1.393.878-1.393 6.369" fill="#1976D2" fill-rule="evenodd"/><path fill-opacity=".957" d="M107 2.527C54.669 10.733 13.156 51.409 2.419 105c-2.304 11.496-2.304 34.504 0 46 5.324 26.576 16.905 48.393 35.563 67C62.11 242.062 93.4 254.992 127.5 254.992c33.797 0 65.23-12.879 89.064-36.492 14.049-13.919 24.128-29.718 30.794-48.266 9.226-25.677 9.226-58.788 0-84.468C228.791 34.087 181.062.652 126.5 1.103c-6.05.05-14.825.691-19.5 1.424m26.666 82.223C132.995 85.862 108 169.879 108 171.022c0 .541 3.015.976 6.75.974l6.75-.005 12.753-42.745c7.015-23.51 12.752-43.308 12.75-43.996-.003-1.381-12.523-1.85-13.337-.5m-54.877 25.037L55.078 124.5l-.039 4.566-.039 4.565 20.75 11.376c11.412 6.256 22.232 12.245 24.044 13.309l3.295 1.934-.295-7.715-.294-7.716-15.72-8.223-15.721-8.223 14.44-8.304c7.942-4.567 15.151-8.823 16.019-9.458 1.239-.906 1.515-2.703 1.28-8.345l-.298-7.191-23.711 14.712m73.417-7.258l.294 7.695 15.705 9.082 15.704 9.083-15.704 8.215-15.705 8.215-.294 7.716-.295 7.715 3.295-1.925c1.812-1.058 12.631-7.066 24.044-13.351L200 133.547l-.037-4.524-.037-4.523-20.147-12.5c-11.08-6.875-21.883-13.55-24.006-14.833l-3.86-2.332.293 7.694" fill="#1976D2" fill-rule="evenodd"/></svg>